Coordinates
version=1
nRows=34
nColumns=19
inDegrees=yes

Units are S.I. units (second, meters, Newtons, ...)
If the header above contains a line with 'inDegrees', this indicates whether rotational values are in degrees (yes) or radians (no).

endheader
time	pelvis_tilt	pelvis_list	pelvis_rotation	pelvis_tx	pelvis_ty	pelvis_tz	hip_flexion_r	hip_adduction_r	hip_rotation_r	knee_angle_r	knee_angle_r_beta	ankle_angle_r	hip_flexion_l	hip_adduction_l	hip_rotation_l	knee_angle_l	knee_angle_l_beta	ankle_angle_l
     11.23333333	     -0.53144434	     -6.28822749	     -8.10716733	      2.31204204	      0.96987117	      1.08936535	     16.58460751	     12.35294991	      5.64584621	     13.80642255	      0.24096753	      6.72047851	    -16.88901198	    -10.76328738	    -26.05101563	     58.48488338	      1.02075378	    -13.99462310
     11.24000000	     -0.00086651	     -7.08218511	     -8.67323454	      2.31091689	      0.96548216	      1.09118638	     16.03854442	     13.20307111	      5.27676623	     15.27925002	      0.26667322	      6.27135359	    -16.74535970	    -11.88752518	    -26.34154511	     62.05536899	      1.08307051	    -13.10164019
     11.24666667	      0.49650368	     -7.95235459	     -9.26782229	      2.30952587	      0.96073787	      1.09296213	     15.68420778	     14.11175542	      4.76539033	     17.28467142	      0.30167443	      6.03233525	    -16.51415046	    -13.06763738	    -26.55337095	     65.65748181	      1.14593924	    -12.19882501
     11.25333333	      0.48819388	     -8.66841655	     -9.91735855	      2.30771461	      0.95521756	      1.09469984	     16.13856957	     14.91922744	      4.14323962	     19.92550604	      0.34776569	      6.07876024	    -15.53903652	    -14.12881419	    -26.48569325	     69.38069096	      1.21092149	    -11.26821331
     11.26000000	      0.83252150	     -9.49842501	    -10.56337949	      2.30572071	      0.94986725	      1.09615382	     16.24489457	     15.75468716	      3.58873562	     22.81001543	      0.39810987	      6.45687272	    -14.96114008	    -15.19881141	    -26.44485930	     72.96450319	      1.27347082	    -10.33438284
     11.26666667	      1.17884211	    -10.29962193	    -11.19775917	      2.30349224	      0.94445185	      1.09739158	     16.39860089	     16.52978432	      3.09915167	     25.88849127	      0.45183941	      7.15699547	    -14.29076260	    -16.19093780	    -26.26274394	     76.47984363	      1.33482508	     -9.38771764
     11.27333333	      1.85302540	    -11.17001995	    -11.76028493	      2.30110812	      0.93946481	      1.09825128	     16.12856503	     17.27680140	      2.74429973	     28.92418322	      0.50482223	      8.17766116	    -13.93339520	    -17.12610818	    -26.00822324	     79.81234874	      1.39298827	     -8.45291799
     11.28000000	      1.78148105	    -11.64954030	    -12.32553240	      2.29847052	      0.93392232	      1.09892479	     16.74027925	     17.74218443	      2.46462971	     32.02971884	      0.55902405	      9.42142121	    -12.42868136	    -17.75059359	    -25.31216118	     83.16809978	      1.45155717	     -7.54482994
     11.28666667	      2.08136009	    -12.24278319	    -12.76610684	      2.29577819	      0.92915419	      1.09917188	     16.74890460	     18.21855963	      2.32530884	     34.79022695	      0.60720401	     10.83378075	    -11.28095019	    -18.38081808	    -24.56290256	     86.28505048	      1.50595823	     -6.68399296
     11.29333333	      2.76668055	    -12.96356768	    -13.12715380	      2.29311929	      0.92526375	      1.09907400	     16.09163679	     18.73172980	      2.39210177	     37.15058653	      0.64840005	     12.42526469	    -10.56385278	    -19.02972603	    -23.85956728	     89.11508390	      1.55535163	     -5.92812654
     11.30000000	      2.55242903	    -13.19533628	    -13.29446651	      2.29023824	      0.92111246	      1.09860681	     16.42378927	     18.84354799	      2.26949042	     39.27147108	      0.68541647	     13.90577147	     -8.31116285	    -19.30418566	    -22.40744524	     91.95858964	      1.60498016	     -5.24829484
     11.30666667	      2.66913640	    -13.51650238	    -13.37885240	      2.28747437	      0.91792772	      1.09784490	     16.12505286	     18.96284258	      2.31014692	     40.92278510	      0.71423734	     15.43390571	     -6.42069541	    -19.56323788	    -21.01129429	     94.47317436	      1.64886795	     -4.70356576
     11.31333333	      2.69641332	    -13.72828969	    -13.31586209	      2.28480423	      0.91533496	      1.09679325	     15.73734137	     18.93959947	      2.33528652	     42.15492894	      0.73574231	     16.88645214	     -4.25574447	    -19.68125841	    -19.40676771	     96.74311150	      1.68848582	     -4.27498032
     11.32000000	      2.61552858	    -13.82060366	    -13.12321857	      2.28229607	      0.91328489	      1.09554376	     15.29429672	     18.77709796	      2.32901530	     43.00479243	      0.75057522	     18.23317936	     -1.82943672	    -19.64759250	    -17.63913436	     98.74776813	      1.72347368	     -3.99855909
     11.32666667	      2.87567965	    -13.94967721	    -12.84009318	      2.28005976	      0.91226184	      1.09416779	     14.20435178	     18.59909854	      2.50832996	     43.37916837	      0.75710931	     19.57099910	      0.16900784	    -19.56346894	    -15.99916292	    100.36107402	      1.75163118	     -3.78512059
     11.33333333	      2.28174056	    -13.67559170	    -12.35398231	      2.27794929	      0.91092485	      1.09260370	     14.07225455	     18.07197358	      2.24721315	     43.60131172	      0.76098645	     20.50168637	      3.47143820	    -19.09217207	    -13.82368519	    101.84608382	      1.77754949	     -3.74005524
     11.34000000	      1.96206109	    -13.41907034	    -11.86171866	      2.27621448	      0.91040819	      1.09117066	     13.40450412	     17.55397629	      2.18536714	     43.46372926	      0.75858518	     21.41290708	      6.29584109	    -18.60482289	    -11.96037716	    102.91392083	      1.79618676	     -3.72554227
     11.34666667	      2.01198854	    -13.20164263	    -11.22560354	      2.27485325	      0.91080637	      1.08966871	     12.14068434	     17.00703049	      2.12068073	     42.98952339	      0.75030873	     22.19952635	      8.60830132	    -18.05062936	    -10.21553545	    103.58846063	      1.80795970	     -3.72219234
     11.35333333	      1.67812270	    -12.77435236	    -10.62390685	      2.27382976	      0.91133738	      1.08837159	     11.20991051	     16.34026174	      2.05056545	     42.35124093	      0.73916860	     22.70260313	     11.28127388	    -17.30888474	     -8.56456548	    103.94915661	      1.81425504	     -3.67456669
     11.36000000	      1.43543775	    -12.30286463	    -10.08099614	      2.27318528	      0.91244840	      1.08730852	     10.03427252	     15.66993231	      2.13630849	     41.50804299	      0.72445202	     23.12522014	     13.64613441	    -16.54943860	     -7.23000523	    103.92923514	      1.81390734	     -3.60986239
     11.36666667	      1.16398570	    -11.76139174	     -9.60158924	      2.27285435	      0.91403864	      1.08647012	      8.78522181	     14.97671386	      2.33219634	     40.49940452	      0.70684795	     23.32256661	     15.86301197	    -15.75069032	     -6.14691704	    103.55762205	      1.80742147	     -3.45640474
     11.37333333	      0.85388222	    -11.15777640	     -9.19879477	      2.27292232	      0.91606945	      1.08584916	      7.47804012	     14.25072962	      2.59813473	     39.34007996	      0.68661392	     23.25609998	     17.91659037	    -14.94867379	     -5.33762410	    102.83996313	      1.79489596	     -3.19056702
     11.38000000	      0.46356246	    -10.50887970	     -9.03842865	      2.27327404	      0.91855178	      1.08559007	      6.16728460	     13.55365684	      3.18397356	     38.06565086	      0.66437094	     22.89334879	     19.78648189	    -14.23221669	     -4.94497951	    101.76950177	      1.77621288	     -2.75641934
     11.38666667	      0.22100439	     -9.84345134	     -8.57441295	      2.27399733	      0.92157600	      1.08506591	      4.64376864	     12.73152125	      3.30952664	     36.58902223	      0.63859891	     22.31191085	     21.44786233	    -13.39300991	     -4.42048965	    100.40767147	      1.75244446	     -2.33645478
     11.39333333	     -0.29270841	     -9.12042939	     -8.49730320	      2.27495650	      0.92479074	      1.08501102	      3.35841677	     11.95671431	      3.87737313	     35.06698212	      0.61203430	     21.39889816	     23.10853400	    -12.72787800	     -4.40746414	     98.74320834	      1.72339410	     -1.72883010
     11.40000000	      0.04328129	     -8.48637732	     -8.22095974	      2.27640869	      0.92939518	      1.08475636	      0.98018548	     11.10014865	      4.30757855	     33.13752689	      0.57835895	     20.13078387	     23.62236506	    -12.06380577	     -4.53298333	     96.67426469	      1.68728422	     -1.04908081
     11.40666667	     -0.13288960	     -7.78411311	     -8.08349951	      2.27802667	      0.93374810	      1.08462234	     -0.81086924	     10.23963378	      4.73278899	     31.21843767	      0.54486452	     18.50716019	     24.57181660	    -11.42803904	     -4.76602109	     94.41138259	      1.64778948	     -0.34330154
     11.41333333	     -1.05225853	     -6.97267719	     -8.16270028	      2.27988435	      0.93741421	      1.08470656	     -1.68800930	      9.31067050	      4.99105563	     29.48320819	      0.51457906	     16.70209290	     26.19629531	    -10.93693626	     -5.28698845	     91.99719195	      1.60565390	      0.41811248
     11.42000000	     -0.18597540	     -6.30091142	     -7.94860944	      2.28224699	      0.94357284	      1.08444494	     -4.82902035	      8.30320531	      5.48114262	     26.96693371	      0.47066178	     14.23367822	     25.58544499	    -10.26030537	     -5.86881276	     89.05890297	      1.55437108	      1.17091171
     11.42666667	     -0.23964224	     -5.54298210	     -7.83231808	      2.28471094	      0.94865028	      1.08421728	     -6.80574234	      7.28875159	      5.60600236	     24.70721566	      0.43122226	     11.59752268	     25.93675547	     -9.66747967	     -6.51236152	     86.05340229	      1.50191520	      1.91970419
     11.43333333	     -0.28431794	     -4.75135449	     -7.67181668	      2.28741981	      0.95376374	      1.08390623	     -8.77436046	      6.22897466	      5.54527719	     22.39713759	      0.39090379	      8.69850591	     26.15784542	     -9.03830110	     -7.23348726	     82.83235175	      1.44569727	      2.58819592
     11.44000000	     -0.34495910	     -3.92399948	     -7.47846780	      2.29029523	      0.95878394	      1.08348376	    -10.66842857	      5.14000032	      5.29343596	     20.12482059	      0.35124438	      5.61383610	     26.28928484	     -8.35833756	     -8.01712473	     79.42444203	      1.38621802	      3.21029927
     11.44666667	     -0.57600146	     -3.08792936	     -7.22663123	      2.29330582	      0.96345417	      1.08293970	    -12.29703921	      4.08935328	      4.80219816	     17.97389756	      0.31370369	      2.44917186	     26.52135648	     -7.65091243	     -8.79956074	     75.86309172	      1.32406073	      3.74340213
     11.45333333	     -0.69674113	     -2.19651406	     -6.90859149	      2.29632277	      0.96806188	      1.08218329	    -13.95499557	      3.00455285	      4.18994858	     15.96044310	      0.27856228	     -0.75861095	     26.54549034	     -6.80309901	     -9.59393300	     72.09807261	      1.25834875	      4.18026398
